<mxfile host="app.diagrams.net" agent="Mozilla/5.0 (Macintosh; Intel Mac OS X 10_15_7) AppleWebKit/537.36 (KHTML, like Gecko) Chrome/134.0.0.0 Safari/537.36" version="26.1.1">
  <diagram name="Page-1" id="3znvp0kV9uD54waKsmK7">
    <mxGraphModel dx="1434" dy="819" grid="1" gridSize="10" guides="1" tooltips="1" connect="1" arrows="1" fold="1" page="1" pageScale="1" pageWidth="850" pageHeight="1100" math="0" shadow="0">
      <root>
        <mxCell id="0" />
        <mxCell id="1" parent="0" />
        <mxCell id="z06ajJAX9lodbt0FoSjz-1" value="&lt;div style=&quot;&quot;&gt;&lt;span style=&quot;font-size: 25px;&quot;&gt;&lt;b&gt;&lt;font face=&quot;Shadows Into Light&quot;&gt;Star Quilting&lt;/font&gt;&lt;/b&gt;&lt;/span&gt;&lt;span style=&quot;background-color: transparent; color: light-dark(rgb(0, 0, 0), rgb(255, 255, 255)); white-space: pre;&quot;&gt;&#x9;&lt;/span&gt;&lt;span style=&quot;background-color: transparent; color: light-dark(rgb(0, 0, 0), rgb(255, 255, 255)); white-space: pre;&quot;&gt;&#x9;&lt;/span&gt;&lt;span style=&quot;background-color: transparent; color: light-dark(rgb(0, 0, 0), rgb(255, 255, 255)); white-space: pre;&quot;&gt;&#x9;&lt;/span&gt;&lt;span style=&quot;background-color: transparent; color: light-dark(rgb(0, 0, 0), rgb(255, 255, 255)); white-space: pre;&quot;&gt;&#x9;&lt;/span&gt;&lt;span style=&quot;background-color: transparent; color: light-dark(rgb(0, 0, 0), rgb(255, 255, 255)); white-space: pre;&quot;&gt;&#x9;&lt;/span&gt;&lt;span style=&quot;background-color: transparent; color: light-dark(rgb(0, 0, 0), rgb(255, 255, 255)); white-space: pre;&quot;&gt;&#x9;&lt;/span&gt;&lt;span style=&quot;background-color: transparent; color: light-dark(rgb(0, 0, 0), rgb(255, 255, 255)); white-space: pre;&quot;&gt;&#x9;&lt;/span&gt;&lt;span style=&quot;background-color: transparent; color: light-dark(rgb(0, 0, 0), rgb(255, 255, 255)); white-space: pre;&quot;&gt;&#x9;&lt;/span&gt;&lt;span style=&quot;background-color: transparent; color: light-dark(rgb(0, 0, 0), rgb(255, 255, 255)); white-space: pre;&quot;&gt;&#x9;&lt;/span&gt;&lt;span style=&quot;background-color: transparent; color: light-dark(rgb(0, 0, 0), rgb(255, 255, 255)); white-space: pre;&quot;&gt;&#x9;&lt;/span&gt;&lt;span style=&quot;background-color: transparent; color: light-dark(rgb(0, 0, 0), rgb(255, 255, 255)); white-space: pre;&quot;&gt;&#x9;&lt;/span&gt;&lt;span style=&quot;background-color: transparent; color: light-dark(rgb(0, 0, 0), rgb(255, 255, 255)); white-space: pre;&quot;&gt;&#x9;&lt;span style=&quot;white-space: pre;&quot;&gt;&#x9;&lt;/span&gt;&lt;/span&gt;&lt;span style=&quot;background-color: transparent; color: light-dark(rgb(0, 0, 0), rgb(255, 255, 255));&quot;&gt;&lt;font style=&quot;font-size: 16px;&quot; data-font-src=&quot;https://fonts.googleapis.com/css?family=Shadows+Into+Light&quot; face=&quot;Shadows Into Light&quot;&gt;&lt;b&gt;Examples&amp;nbsp; Services &amp;amp; Prices&amp;nbsp; &amp;nbsp; FAQs&lt;/b&gt;&lt;/font&gt;&lt;/span&gt;&lt;/div&gt;" style="rounded=0;whiteSpace=wrap;html=1;align=left;" vertex="1" parent="1">
          <mxGeometry x="80" y="120" width="690" height="60" as="geometry" />
        </mxCell>
        <mxCell id="z06ajJAX9lodbt0FoSjz-2" value="Image" style="rounded=0;whiteSpace=wrap;html=1;" vertex="1" parent="1">
          <mxGeometry x="80" y="180" width="690" height="350" as="geometry" />
        </mxCell>
        <mxCell id="z06ajJAX9lodbt0FoSjz-3" value="" style="endArrow=none;html=1;rounded=0;entryX=1;entryY=0;entryDx=0;entryDy=0;exitX=0;exitY=1;exitDx=0;exitDy=0;" edge="1" parent="1" source="z06ajJAX9lodbt0FoSjz-2" target="z06ajJAX9lodbt0FoSjz-2">
          <mxGeometry width="50" height="50" relative="1" as="geometry">
            <mxPoint x="440" y="470" as="sourcePoint" />
            <mxPoint x="490" y="420" as="targetPoint" />
          </mxGeometry>
        </mxCell>
        <mxCell id="z06ajJAX9lodbt0FoSjz-4" value="" style="endArrow=none;html=1;rounded=0;entryX=1;entryY=1;entryDx=0;entryDy=0;exitX=0;exitY=0;exitDx=0;exitDy=0;" edge="1" parent="1" source="z06ajJAX9lodbt0FoSjz-2" target="z06ajJAX9lodbt0FoSjz-2">
          <mxGeometry width="50" height="50" relative="1" as="geometry">
            <mxPoint x="90" y="540" as="sourcePoint" />
            <mxPoint x="780" y="190" as="targetPoint" />
          </mxGeometry>
        </mxCell>
        <mxCell id="z06ajJAX9lodbt0FoSjz-5" value="&lt;font data-font-src=&quot;https://fonts.googleapis.com/css?family=Shadows+Into+Light&quot; face=&quot;Shadows Into Light&quot;&gt;footer&lt;/font&gt;" style="rounded=0;whiteSpace=wrap;html=1;align=center;" vertex="1" parent="1">
          <mxGeometry x="80" y="530" width="690" height="60" as="geometry" />
        </mxCell>
        <mxCell id="z06ajJAX9lodbt0FoSjz-6" value="Welcome Text&lt;div&gt;&lt;br&gt;&lt;/div&gt;&lt;div&gt;_____________&lt;/div&gt;&lt;div&gt;&lt;br class=&quot;Apple-interchange-newline&quot;&gt;_____________&lt;/div&gt;&lt;div&gt;&lt;br class=&quot;Apple-interchange-newline&quot;&gt;_____________&lt;/div&gt;&lt;div&gt;&lt;br class=&quot;Apple-interchange-newline&quot;&gt;_____________&lt;/div&gt;&lt;div&gt;&lt;br class=&quot;Apple-interchange-newline&quot;&gt;_____________&lt;/div&gt;&lt;div&gt;&lt;br class=&quot;Apple-interchange-newline&quot;&gt;_____________&lt;/div&gt;" style="rounded=0;whiteSpace=wrap;html=1;" vertex="1" parent="1">
          <mxGeometry x="280" y="180" width="290" height="350" as="geometry" />
        </mxCell>
        <mxCell id="z06ajJAX9lodbt0FoSjz-10" value="&lt;div style=&quot;&quot;&gt;&lt;span style=&quot;font-size: 25px;&quot;&gt;&lt;b&gt;&lt;font face=&quot;Shadows Into Light&quot;&gt;Star Quilting&lt;/font&gt;&lt;/b&gt;&lt;/span&gt;&lt;span style=&quot;background-color: transparent; color: light-dark(rgb(0, 0, 0), rgb(255, 255, 255)); white-space: pre;&quot;&gt;&#x9;&lt;/span&gt;&lt;span style=&quot;background-color: transparent; color: light-dark(rgb(0, 0, 0), rgb(255, 255, 255)); white-space: pre;&quot;&gt;&#x9;&lt;/span&gt;&lt;span style=&quot;background-color: transparent; color: light-dark(rgb(0, 0, 0), rgb(255, 255, 255)); white-space: pre;&quot;&gt;&#x9;&lt;/span&gt;&lt;span style=&quot;background-color: transparent; color: light-dark(rgb(0, 0, 0), rgb(255, 255, 255)); white-space: pre;&quot;&gt;&#x9;&lt;/span&gt;&lt;span style=&quot;background-color: transparent; color: light-dark(rgb(0, 0, 0), rgb(255, 255, 255)); white-space: pre;&quot;&gt;&#x9;&lt;/span&gt;&lt;span style=&quot;background-color: transparent; color: light-dark(rgb(0, 0, 0), rgb(255, 255, 255)); white-space: pre;&quot;&gt;&#x9;&lt;/span&gt;&lt;span style=&quot;background-color: transparent; color: light-dark(rgb(0, 0, 0), rgb(255, 255, 255)); white-space: pre;&quot;&gt;&#x9;&lt;/span&gt;&lt;/div&gt;" style="rounded=0;whiteSpace=wrap;html=1;align=left;" vertex="1" parent="1">
          <mxGeometry x="80" y="630" width="290" height="60" as="geometry" />
        </mxCell>
        <mxCell id="z06ajJAX9lodbt0FoSjz-11" value="Image" style="rounded=0;whiteSpace=wrap;html=1;" vertex="1" parent="1">
          <mxGeometry x="80" y="690" width="290" height="350" as="geometry" />
        </mxCell>
        <mxCell id="z06ajJAX9lodbt0FoSjz-12" value="" style="endArrow=none;html=1;rounded=0;entryX=1;entryY=0;entryDx=0;entryDy=0;exitX=0;exitY=1;exitDx=0;exitDy=0;" edge="1" parent="1" source="z06ajJAX9lodbt0FoSjz-11" target="z06ajJAX9lodbt0FoSjz-11">
          <mxGeometry width="50" height="50" relative="1" as="geometry">
            <mxPoint x="440" y="980" as="sourcePoint" />
            <mxPoint x="490" y="930" as="targetPoint" />
          </mxGeometry>
        </mxCell>
        <mxCell id="z06ajJAX9lodbt0FoSjz-13" value="" style="endArrow=none;html=1;rounded=0;entryX=1;entryY=1;entryDx=0;entryDy=0;exitX=0;exitY=0;exitDx=0;exitDy=0;" edge="1" parent="1" source="z06ajJAX9lodbt0FoSjz-11" target="z06ajJAX9lodbt0FoSjz-11">
          <mxGeometry width="50" height="50" relative="1" as="geometry">
            <mxPoint x="90" y="1050" as="sourcePoint" />
            <mxPoint x="780" y="700" as="targetPoint" />
          </mxGeometry>
        </mxCell>
        <mxCell id="z06ajJAX9lodbt0FoSjz-14" value="&lt;font data-font-src=&quot;https://fonts.googleapis.com/css?family=Shadows+Into+Light&quot; face=&quot;Shadows Into Light&quot;&gt;footer&lt;/font&gt;" style="rounded=0;whiteSpace=wrap;html=1;align=center;" vertex="1" parent="1">
          <mxGeometry x="80" y="1040" width="290" height="70" as="geometry" />
        </mxCell>
        <mxCell id="z06ajJAX9lodbt0FoSjz-15" value="Welcome Text&lt;div&gt;&lt;br&gt;&lt;/div&gt;&lt;div&gt;_____________&lt;/div&gt;&lt;div&gt;&lt;br class=&quot;Apple-interchange-newline&quot;&gt;_____________&lt;/div&gt;&lt;div&gt;&lt;br class=&quot;Apple-interchange-newline&quot;&gt;_____________&lt;/div&gt;&lt;div&gt;&lt;br class=&quot;Apple-interchange-newline&quot;&gt;_____________&lt;/div&gt;&lt;div&gt;&lt;br class=&quot;Apple-interchange-newline&quot;&gt;_____________&lt;/div&gt;&lt;div&gt;&lt;br class=&quot;Apple-interchange-newline&quot;&gt;_____________&lt;/div&gt;" style="rounded=0;whiteSpace=wrap;html=1;" vertex="1" parent="1">
          <mxGeometry x="150" y="690" width="140" height="350" as="geometry" />
        </mxCell>
        <mxCell id="z06ajJAX9lodbt0FoSjz-16" value="" style="endArrow=none;html=1;rounded=0;entryX=0.29;entryY=0.086;entryDx=0;entryDy=0;entryPerimeter=0;" edge="1" parent="1">
          <mxGeometry width="50" height="50" relative="1" as="geometry">
            <mxPoint x="356.67" y="653" as="sourcePoint" />
            <mxPoint x="330.0999999999999" y="653.0999999999999" as="targetPoint" />
          </mxGeometry>
        </mxCell>
        <mxCell id="z06ajJAX9lodbt0FoSjz-19" value="" style="endArrow=none;html=1;rounded=0;entryX=0.29;entryY=0.086;entryDx=0;entryDy=0;entryPerimeter=0;" edge="1" parent="1">
          <mxGeometry width="50" height="50" relative="1" as="geometry">
            <mxPoint x="357.67" y="661" as="sourcePoint" />
            <mxPoint x="331.0999999999999" y="661.0999999999999" as="targetPoint" />
          </mxGeometry>
        </mxCell>
        <mxCell id="z06ajJAX9lodbt0FoSjz-20" value="" style="endArrow=none;html=1;rounded=0;entryX=0.29;entryY=0.086;entryDx=0;entryDy=0;entryPerimeter=0;" edge="1" parent="1">
          <mxGeometry width="50" height="50" relative="1" as="geometry">
            <mxPoint x="357.67" y="672" as="sourcePoint" />
            <mxPoint x="331.0999999999999" y="672.0999999999999" as="targetPoint" />
          </mxGeometry>
        </mxCell>
      </root>
    </mxGraphModel>
  </diagram>
</mxfile>
